PathFileType	4	(X/Y/Z)	S:\OneDrive - The University of Tokyo\ìåëÂéˆã∆\ÉoÉCÉÅÉJ\ë™íË\hirabayashi_2\Trimmed\Trimmed_Trimmed_ShSs3-51P.trc
DataRate	CameraRate	NumFrames	NumMarkers	Units	OrigDataRate	OrigDataStartFrame	OrigNumFrames
200.00	200.00	      6	51	mm	200.00	1504	      1718
Frame#	Time	handRI			handRO			wrRI			wrRO			elbRI			elbRO			shRF			shRU			shRB			handLI			handLO			wrLI			wrLO			elbLI			elbLO			shLF			shLU			shLB			toeR			baRI			baRO			heelR			anRI			anRO			knRI			knRO			troR			toeL			baLI			baLO			heelL			anLI			anLO			knLI			knLO			troL			head			earR			earL			clav			c7			ribR			ribL			xiph			t12			ASISR			ASISL			PSISR			PSISL			ThR			ThL			
		X1	Y1	Z1	X2	Y2	Z2	X3	Y3	Z3	X4	Y4	Z4	X5	Y5	Z5	X6	Y6	Z6	X7	Y7	Z7	X8	Y8	Z8	X9	Y9	Z9	X10	Y10	Z10	X11	Y11	Z11	X12	Y12	Z12	X13	Y13	Z13	X14	Y14	Z14	X15	Y15	Z15	X16	Y16	Z16	X17	Y17	Z17	X18	Y18	Z18	X19	Y19	Z19	X20	Y20	Z20	X21	Y21	Z21	X22	Y22	Z22	X23	Y23	Z23	X24	Y24	Z24	X25	Y25	Z25	X26	Y26	Z26	X27	Y27	Z27	X28	Y28	Z28	X29	Y29	Z29	X30	Y30	Z30	X31	Y31	Z31	X32	Y32	Z32	X33	Y33	Z33	X34	Y34	Z34	X35	Y35	Z35	X36	Y36	Z36	X37	Y37	Z37	X38	Y38	Z38	X39	Y39	Z39	X40	Y40	Z40	X41	Y41	Z41	X42	Y42	Z42	X43	Y43	Z43	X44	Y44	Z44	X45	Y45	Z45	X46	Y46	Z46	X47	Y47	Z47	X48	Y48	Z48	X49	Y49	Z49	X50	Y50	Z50	X51	Y51	Z51	

1504	7.515	-589.04852	1575.80054	1643.15308	-612.55707	1669.22461	1656.23914	-631.10779	1580.21350	1708.08533	-687.19788	1642.65247	1684.90173	-741.70465	1693.04114	1939.79590	-665.44458	1711.26746	1922.29590	-766.16870	1917.70984	2058.87671	-731.27875	1957.99390	2154.39624	-728.81061	1870.52917	2228.08691	-1236.90271	1638.11646	1639.19653	-1201.41028	1731.62708	1671.68994	-1194.82715	1650.50586	1709.43396	-1137.68689	1699.20044	1679.73645	-1076.89685	1763.55286	1931.21350	-1154.72534	1795.26782	1916.30444	-1029.40808	1971.03162	2067.37646	-1046.08923	2008.33594	2171.24219	-1093.08301	1928.07471	2226.88794	-987.61438	347.43823	2395.92310	-1032.67151	417.85132	2392.10669	-944.21344	425.70581	2432.41138	-1010.20862	586.41083	2511.41577	-1030.88416	569.19629	2406.61475	-944.22021	559.27258	2462.27002	-989.16510	920.99200	2268.75415	-875.30219	923.03424	2286.39746	-800.98389	1333.26233	2144.97437	-1085.15588	361.75803	2393.77466	-1051.57959	431.09692	2386.47656	-1132.09424	436.73383	2429.57300	-1054.91077	592.81396	2508.38672	-1035.13708	574.06445	2416.59741	-1124.13086	566.86682	2462.14673	-1028.74243	936.70636	2260.01245	-1142.04370	952.77667	2275.56470	-1148.98645	1361.08203	2156.69312	-870.96033	2183.32959	2320.19019	-781.19373	2069.43872	2205.42554	-957.70343	2105.89941	2193.16748	-890.42865	1931.44275	2043.47302	-894.22968	1949.29016	2224.13721	-788.14569	1589.31787	2057.33203	-1113.86670	1607.86682	2064.19067	-925.11475	1729.47510	1968.12878	-946.89563	1591.24573	2184.02026	-839.73987	1394.97461	2013.84265	-1117.95325	1435.84314	2020.84692	-902.87006	1478.86328	2177.32544	-1001.65613	1489.29163	2184.21118	-846.07867	1170.44421	2252.67578	-1136.83850	1187.39343	2253.28857	
1505	7.520	-588.87048	1575.71875	1642.92798	-612.40161	1669.16431	1656.07666	-631.05231	1580.14490	1707.81836	-687.09021	1642.57422	1684.45752	-741.99597	1693.81909	1938.83325	-665.74292	1711.63611	1921.92615	-765.09106	1919.19116	2058.58472	-730.79285	1958.25720	2154.84033	-729.30591	1869.59778	2227.37402	-1237.12073	1637.99500	1638.80017	-1201.84106	1731.41296	1671.41797	-1195.38171	1650.32349	1709.14246	-1138.00354	1699.01489	1679.43860	-1077.56519	1763.94128	1930.53638	-1155.24084	1795.32788	1916.17358	-1030.00659	1972.34875	2067.16162	-1046.66919	2008.38318	2171.69922	-1092.33032	1927.19055	2226.23047	-987.92505	342.56290	2359.51416	-1032.92725	412.98279	2356.63647	-944.11719	419.57373	2397.49878	-1011.23621	578.70697	2480.00244	-1030.95264	564.11792	2374.98633	-944.63525	552.59460	2430.17090	-989.11145	919.09259	2245.35352	-875.20331	920.34192	2263.43945	-800.62634	1333.59753	2131.56055	-1085.38220	356.88101	2356.89648	-1051.91003	426.29926	2351.31836	-1132.48926	430.84116	2394.19946	-1055.88025	585.13312	2476.70313	-1035.47290	568.27960	2384.58643	-1124.87720	559.81543	2429.22827	-1028.59631	934.67792	2236.89160	-1142.25171	950.18439	2251.88257	-1148.57654	1361.38904	2142.81372	-870.88354	2182.15186	2323.20972	-777.06818	2067.83643	2208.22583	-957.93719	2106.21777	2195.10596	-890.75018	1933.67371	2043.39380	-894.81995	1948.53735	2224.32202	-787.85425	1591.96899	2049.88965	-1113.45862	1609.88513	2055.91870	-924.56891	1734.02759	1963.55603	-947.75714	1591.28076	2176.14526	-838.65875	1398.65234	2001.76965	-1117.73889	1439.13123	2008.72302	-902.16260	1480.07214	2167.71289	-1001.42566	1489.31860	2173.79004	-844.31396	1168.32849	2235.23584	-1136.96509	1185.68872	2235.40625	
1506	7.525	-588.82031	1575.68262	1642.80811	-612.39496	1669.11218	1655.93005	-631.09741	1580.06714	1707.54041	-687.01318	1642.57312	1684.02051	-742.62744	1694.35938	1937.83789	-665.75848	1711.64636	1921.24011	-763.11017	1920.52026	2059.42310	-730.03918	1958.42664	2155.66333	-729.84808	1868.50122	2226.66138	-1237.37488	1637.87476	1638.35010	-1202.33337	1731.09937	1671.10486	-1196.12585	1649.93848	1708.83191	-1138.38330	1698.85791	1679.02600	-1078.05664	1764.23071	1929.71387	-1155.87817	1795.17261	1915.90918	-1030.83093	1973.70166	2066.91699	-1047.48669	2008.20886	2172.32300	-1092.38672	1926.01880	2225.81250	-987.98279	338.03998	2322.21704	-1033.15173	408.84500	2320.66333	-944.35510	414.38193	2361.91211	-1010.74683	571.68341	2446.83496	-1028.25757	560.30450	2344.23511	-945.36212	546.61108	2397.82031	-989.18152	917.24347	2221.51196	-875.38855	918.26727	2239.94287	-800.51935	1334.62939	2118.24927	-1085.60669	352.95273	2319.87109	-1051.07520	423.16980	2314.85132	-1132.91797	425.58002	2357.89014	-1056.52747	578.14911	2444.64844	-1035.51965	563.43652	2352.20776	-1125.29248	553.82983	2395.99634	-1028.68066	932.93152	2213.00586	-1141.79297	948.36810	2228.38672	-1148.59155	1362.11816	2128.75220	-871.08600	2179.93042	2326.51929	-778.17993	2068.65820	2209.45190	-958.15015	2106.12036	2197.41650	-890.79785	1935.91504	2043.42627	-895.35522	1947.50549	2224.58203	-788.15662	1594.87781	2043.29846	-1112.76282	1612.37878	2047.80579	-924.71375	1738.46509	1958.63550	-944.30646	1590.50244	2168.37354	-837.93091	1402.53320	1989.90100	-1117.15186	1442.48157	1996.66272	-902.32477	1477.47107	2155.75439	-1001.53772	1489.10657	2163.38330	-844.62726	1166.44861	2217.83423	-1136.92871	1183.83594	2217.26636	
1507	7.530	-588.91351	1575.56299	1642.68030	-612.49030	1669.04211	1655.85095	-631.28650	1579.98840	1707.30396	-687.05756	1642.51331	1683.66919	-743.09930	1694.95081	1937.19531	-665.89600	1711.71106	1920.89172	-761.92517	1922.36560	2057.16406	-729.44324	1958.52209	2156.54321	-730.33167	1867.21301	2226.03198	-1237.65930	1637.75549	1637.84253	-1202.70459	1730.89502	1670.81567	-1196.71570	1649.68494	1708.46545	-1138.90991	1698.77441	1678.79517	-1078.61621	1764.65405	1928.71582	-1157.95703	1793.57117	1915.90186	-1031.81958	1974.64148	2066.80713	-1048.13306	2007.93201	2172.57544	-1092.66992	1924.81299	2225.20728	-988.21362	334.08023	2283.90698	-1033.62500	404.58542	2284.36670	-944.73486	409.58295	2325.67261	-1011.56476	564.94226	2413.93018	-1028.45544	555.92480	2311.53564	-945.78339	540.76886	2364.84009	-988.88727	915.50366	2197.22583	-875.56396	916.35510	2216.11230	-800.15350	1335.33081	2104.61743	-1085.78149	348.62360	2280.92529	-1049.96680	420.24039	2278.07153	-1133.26111	420.75894	2321.13940	-1057.26379	571.17059	2411.16772	-1035.93860	558.38599	2318.61694	-1125.84351	547.86499	2362.05127	-1028.46631	931.40356	2188.94531	-1141.68542	946.46399	2204.00464	-1148.30737	1362.65137	2114.61450	-871.26733	2177.90771	2329.87354	-779.10236	2067.83398	2211.41846	-958.25916	2105.51831	2199.54688	-890.95856	1938.16870	2043.64685	-895.92236	1946.30396	2224.97998	-787.59271	1597.47791	2036.02966	-1112.81665	1614.88293	2039.29272	-923.57129	1743.39746	1953.54724	-943.59308	1589.69690	2160.41528	-836.74213	1406.63782	1977.79224	-1116.66187	1445.85864	1984.54199	-901.73120	1477.20203	2145.14551	-1001.23364	1488.96484	2152.85107	-844.94611	1165.02905	2200.26660	-1137.20801	1182.43323	2198.84595	
1508	7.535	-589.06317	1575.47058	1642.55713	-612.67010	1668.97290	1655.79712	-631.58868	1579.78381	1707.04358	-687.28223	1642.42224	1683.35327	-743.35089	1695.32275	1936.79688	-665.98468	1711.73730	1920.57349	-761.27954	1923.66296	2058.82837	-729.01855	1958.58911	2157.36475	-730.67944	1865.83044	2225.32373	-1237.96729	1637.63721	1637.27441	-1202.99634	1730.70435	1670.52319	-1197.25427	1649.33179	1707.91272	-1139.61853	1698.48083	1678.41479	-1079.39795	1765.17078	1927.99048	-1159.19519	1793.40955	1915.70251	-1033.12903	1975.84497	2066.70435	-1049.26062	2007.39990	2173.01782	-1092.94519	1923.20129	2224.49658	-988.33496	330.83829	2244.85400	-1035.07336	400.21698	2247.71924	-945.05817	405.30676	2288.54761	-1012.36908	558.37964	2380.58057	-1029.46716	551.73309	2277.86694	-946.27179	535.65869	2330.84302	-989.04974	914.64386	2172.85034	-875.56189	914.58087	2192.01685	-799.78076	1336.38965	2090.84644	-1085.83276	345.58667	2242.07813	-1048.77295	414.54852	2240.93994	-1133.77112	416.45279	2283.49707	-1057.84167	564.66656	2377.54199	-1036.48682	554.03986	2284.69995	-1126.45996	542.60291	2327.88989	-1028.18237	930.48499	2164.77734	-1141.81226	945.12054	2179.76538	-1147.79529	1363.22852	2100.46997	-871.50177	2175.23730	2333.32178	-779.55951	2067.10205	2212.91626	-957.04028	2103.22974	2202.35303	-890.97852	1940.36987	2043.85986	-896.43073	1944.85095	2225.30591	-786.29254	1599.81653	2028.07202	-1112.61475	1617.13599	2031.46594	-923.33112	1747.20581	1950.40857	-948.63300	1589.06128	2154.06909	-836.30115	1410.27258	1965.82397	-1114.86609	1449.89612	1973.46326	-901.33600	1480.64087	2137.53711	-1001.66943	1488.82471	2142.72095	-845.10510	1163.97705	2182.23755	-1137.07617	1181.01086	2180.27368	
1509	7.540	-589.27301	1575.41040	1642.48047	-612.98340	1668.87195	1655.78674	-631.96063	1579.56189	1706.69897	-687.68744	1642.18542	1683.10571	-743.62012	1695.52930	1936.58044	-665.99255	1711.73425	1920.36438	-760.26807	1924.85974	2058.95752	-728.51886	1958.28052	2158.35278	-731.00415	1864.18091	2224.68335	-1238.29175	1637.51917	1636.64331	-1203.30627	1730.56580	1670.02075	-1197.75439	1649.05127	1707.39893	-1140.24353	1698.12549	1677.94031	-1079.87476	1765.48816	1927.48999	-1159.83960	1793.09216	1915.38623	-1034.55273	1977.13049	2065.60376	-1050.37244	2006.82764	2173.35083	-1093.27576	1921.39368	2223.86450	-988.38556	328.41153	2205.35840	-1030.93628	402.37396	2205.96509	-945.30585	401.82080	2250.99536	-1012.51758	552.61353	2346.42725	-1029.83948	547.87506	2243.86426	-946.89825	530.93408	2296.29736	-989.33698	913.53680	2148.08350	-875.41913	913.29633	2167.44604	-797.52393	1337.31543	2077.25415	-1086.15063	343.18692	2202.42041	-1050.34973	414.63251	2202.78516	-1134.01526	412.92673	2245.43262	-1058.33960	558.96063	2343.44727	-1037.19348	550.01196	2250.08203	-1127.38782	537.91394	2292.75806	-1028.02124	929.73651	2140.01831	-1141.27148	944.37585	2153.19629	-1147.72900	1364.34033	2086.15991	-871.61694	2172.29810	2336.68530	-779.93060	2066.15088	2215.00220	-957.12335	2102.29150	2204.62207	-891.00555	1941.95972	2044.00244	-896.94000	1943.17676	2225.48462	-784.60870	1602.29395	2020.75989	-1111.99121	1619.67200	2024.12769	-922.69611	1751.37952	1946.52954	-948.23877	1589.26233	2145.08960	-835.33600	1414.68518	1953.89221	-1113.55408	1453.96948	1961.29517	-895.61389	1484.64661	2128.67041	-996.59338	1488.96265	2131.46094	-845.13733	1162.89636	2164.15063	-1136.86572	1179.86279	2161.40308	
